Coordinates
version=1
nRows=65
nColumns=12
inDegrees=yes

Units are S.I. units (second, meters, Newtons, ...)
Angles are in degrees

endheader
time	SC_y	SC_z	SC_x	AC_y	AC_z	AC_x	GH_y	GH_z	GH_yy	EL_x	PS_y
       0.0               -48.7          19.63          9.603          32.63          -19.3         -9.824          67.36          5.703          91.69          59.57          79.94
   0.03888               -48.7          19.63          9.602          32.63         -19.29         -9.821          67.32          5.709          91.65          59.58          79.94
   0.07775              -48.69          19.62          9.601          32.63         -19.29         -9.817          67.29          5.715          91.62           59.6          79.95
    0.1166              -48.68          19.62            9.6          32.63         -19.28         -9.812          67.25          5.722          91.58          59.61          79.96
    0.1555              -48.68          19.62          9.599          32.63         -19.28         -9.808          67.21          5.729          91.54          59.62          79.97
    0.1944              -48.67          19.61          9.597          32.63         -19.27         -9.803          67.17          5.737           91.5          59.63          79.98
    0.2333              -48.66          19.61          9.596          32.64         -19.27         -9.798          67.13          5.745          91.46          59.65          79.99
    0.2721              -48.66          19.61          9.594          32.64         -19.26         -9.792          67.08          5.754          91.41          59.66          80.01
     0.311              -48.65           19.6          9.593          32.64         -19.26         -9.787          67.03          5.763          91.36          59.68          80.02
    0.3499              -48.64           19.6          9.591          32.64         -19.25          -9.78          66.98          5.773           91.3          59.69          80.03
    0.3888              -48.63          19.59          9.589          32.65         -19.24         -9.773          66.92          5.784          91.24          59.71          80.05
    0.4276              -48.62          19.59          9.587          32.65         -19.24         -9.766          66.86          5.796          91.18          59.73          80.07
    0.4665              -48.61          19.58          9.585          32.65         -19.23         -9.758          66.79          5.808          91.11          59.75          80.08
    0.5054               -48.6          19.58          9.582          32.65         -19.22          -9.75          66.72          5.822          91.04          59.78           80.1
    0.5443              -48.58          19.57           9.58          32.66         -19.21         -9.741          66.64          5.837          90.96           59.8          80.12
    0.5832              -48.57          19.57          9.577          32.66          -19.2         -9.731          66.56          5.852          90.87          59.83          80.14
     0.622              -48.55          19.56          9.574          32.67         -19.19          -9.72          66.46           5.87          90.78          59.86          80.17
    0.6609              -48.54          19.55          9.571          32.67         -19.17         -9.708          66.36          5.889          90.67          59.89          80.19
    0.6998              -48.52          19.54          9.567          32.68         -19.16         -9.695          66.25          5.909          90.56          59.92          80.22
    0.7387               -48.5          19.53          9.563          32.68         -19.14         -9.681          66.13          5.932          90.44          59.96          80.25
    0.7775              -48.48          19.52          9.558          32.69         -19.13         -9.665           66.0          5.957          90.31          60.01          80.29
    0.8164              -48.45          19.51          9.554          32.69         -19.11         -9.648          65.85          5.984          90.16          60.05          80.33
    0.8553              -48.43           19.5          9.548           32.7         -19.09         -9.629          65.69          6.014          89.99           60.1          80.37
    0.8942               -48.4          19.48          9.542          32.71         -19.07         -9.609          65.51          6.047          89.81          60.16          80.42
     0.933              -48.37          19.47          9.536          32.72         -19.04         -9.585          65.32          6.084          89.61          60.22          80.47
    0.9719              -48.33          19.45          9.529          32.73         -19.02         -9.559           65.1          6.126          89.39          60.29          80.52
     1.011              -48.29          19.43           9.52          32.74         -18.98          -9.53          64.85          6.172          89.13          60.37          80.59
      1.05              -48.24          19.41          9.511          32.75         -18.95         -9.498          64.57          6.224          88.85          60.46          80.66
     1.089              -48.19          19.39          9.501          32.77         -18.91         -9.461          64.26          6.283          88.53          60.56          80.74
     1.127              -48.13          19.36          9.489          32.78         -18.87         -9.419           63.9           6.35          88.17          60.67          80.84
     1.166              -48.07          19.33          9.475           32.8         -18.81         -9.371          63.49          6.426          87.75           60.8          80.94
     1.205              -47.99          19.29           9.46          32.82         -18.76         -9.316          63.02          6.514          87.27          60.95          81.07
     1.244               -47.9          19.25          9.442          32.85         -18.69         -9.253          62.48          6.615          86.72          61.12          81.21
     1.283               -47.8           19.2          9.421          32.87         -18.61         -9.179          61.85          6.732          86.08          61.32          81.37
     1.322              -47.68          19.14          9.397          32.91         -18.52         -9.093          61.12           6.87          85.34          61.55          81.56
     1.361              -47.54          19.08          9.368          32.95         -18.41         -8.991          60.25          7.032          84.46          61.83          81.79
       1.4              -47.37           19.0          9.334          32.99         -18.28         -8.871          59.23          7.224          83.41          62.16          82.06
     1.438              -47.17           18.9          9.293          33.05         -18.13         -8.726          57.99          7.455          82.15          62.55          82.38
     1.477              -46.92          18.78          9.243          33.12         -17.94         -8.551           56.5          7.734          80.63          63.02          82.77
     1.516              -46.62          18.64          9.183           33.2         -17.71         -8.337          54.68          8.076          78.78           63.6          83.24
     1.555              -46.25          18.47          9.108           33.3         -17.43         -8.073          52.43          8.497          76.48          64.31          83.83
     1.594              -45.79          18.25          9.015          33.43         -17.08         -7.744          49.62          9.022          73.63           65.2          84.56
     1.633              -45.21          17.97          8.898          33.58         -16.64          -7.33          46.09          9.683          70.03          66.33          85.48
     1.672              -44.48          17.62          8.749          33.79         -16.08         -6.803           41.6          10.52          65.45          67.75          86.65
     1.711              -43.53          17.17          8.558          34.05         -15.36         -6.128          35.85           11.6           59.6          69.58          88.15
     1.749              -42.32           16.6          8.314          34.38         -14.44         -5.263          28.47          12.98          52.08          71.92          90.08
     1.788              -40.78          15.87          8.001           34.8         -13.27         -4.157          19.04          14.74          42.49          74.91          92.53
     1.827              -38.84          14.94          7.608          35.34         -11.79         -2.767          7.192          16.96          30.42          78.67          95.62
     1.866              -36.47          13.82          7.129          35.99         -9.986         -1.072          -7.25          19.67          15.71          83.26          99.39
     1.905              -33.72          12.52          6.573          36.74         -7.896         0.8914         -23.99           22.8         -1.339          88.57          103.8
     1.944              -30.75          11.11          5.972          37.56         -5.634          3.018         -42.12          26.19          -19.8          94.32          108.5
     1.983              -27.78          9.694          5.371          38.38         -3.372          5.144         -60.24          29.58         -38.26          100.1          113.2
     2.022              -25.03          8.391          4.816          39.13         -1.283          7.108         -76.98          32.72         -55.31          105.4          117.6
      2.06              -22.66          7.267          4.336          39.78           0.52          8.802         -91.43          35.42         -70.01          110.0          121.3
     2.099              -20.72          6.344          3.943          40.32          1.999          10.19         -103.3          37.64         -82.08          113.7          124.4
     2.138              -19.18           5.61          3.631          40.74          3.175           11.3         -112.7           39.4         -91.68          116.7          126.9
     2.177              -17.97          5.036          3.386          41.07          4.096          12.16         -120.1          40.78          -99.2          119.1          128.8
     2.216              -17.02          4.588          3.195          41.33          4.814          12.84         -125.8          41.86         -105.1          120.9          130.3
     2.255              -16.29          4.238          3.046          41.54          5.375          13.37         -130.3           42.7         -109.6          122.3          131.5
     2.294              -15.71          3.963          2.929           41.7          5.816          13.78         -133.9          43.36         -113.2          123.4          132.4
     2.333              -15.25          3.745          2.836          41.82          6.166          14.11         -136.7          43.89         -116.1          124.3          133.1
     2.371              -14.88           3.57          2.761          41.92          6.447          14.37         -138.9          44.31         -118.4          125.0          133.7
      2.41              -14.58          3.428          2.701          42.01          6.674          14.59         -140.7          44.65         -120.2          125.6          134.2
     2.449              -14.33          3.312          2.651          42.07           6.86          14.76         -142.2          44.93         -121.7          126.1          134.6
     2.488              -14.13          3.216           2.61          42.13          7.014          14.91         -143.5          45.16         -123.0          126.5          134.9
